<svg width="1257" height="159" viewBox="0 0 1257 159" fill="none" xmlns="http://www.w3.org/2000/svg">
<path fill-rule="evenodd" clip-rule="evenodd" d="M729 110.5H794.5C795.667 90.833 787.818 53 747 53C697.5 53 697.08 100.008 697.5 110.5C698 123 706.5 157 744 158C782.579 159.029 790.612 132.002 792.676 125.058C792.806 124.622 792.912 124.266 793 124L767 121.5C765.834 127.167 760.7 138.4 749.5 138C736.65 137.541 732.646 130.342 730.915 127.23C730.76 126.951 730.623 126.705 730.5 126.5C729 124 727.5 113 729 110.5ZM729 93.5H765C765.333 86 762.3 71.1 747.5 71.5C729 72 729 91.5 729 93.5Z" fill="#D12B1D"/>
<path fill-rule="evenodd" clip-rule="evenodd" d="M970.56 111H1036.06C1037.23 91.333 1029.38 53.5 988.56 53.5C939.06 53.5 938.64 100.508 939.06 111C939.56 123.5 948.06 157.5 985.56 158.5C1024.14 159.529 1032.17 132.502 1034.24 125.558C1034.37 125.122 1034.47 124.766 1034.56 124.5L1008.56 122C1007.39 127.667 1002.26 138.9 991.06 138.5C978.21 138.041 974.21 130.842 972.48 127.73C972.32 127.451 972.18 127.205 972.06 127C970.56 124.5 969.06 113.5 970.56 111ZM970.56 94H1006.56C1006.89 86.5 1003.86 71.6 989.06 72C970.56 72.5 970.56 92 970.56 94Z" fill="#D12B1D"/>
<path fill-rule="evenodd" clip-rule="evenodd" d="M0 0V156.5H73C91.5 156.5 121.9 146.9 121.5 108.5C121.1 70.1 92.5 63 75.5 63H35.5V28H103.5V0H0ZM35 126.5V89.5H67C73 89.5 85 93.2 85 108C85 122.8 73 126.5 67 126.5H35Z" fill="#D12B1D"/>
<path fill-rule="evenodd" clip-rule="evenodd" d="M145 0V156.5H182V98.5H225.5C238.5 98.5 265.5 84.5 265.5 49C265.5 12.486 240 0 219.5 0H145ZM181 28.5V69.5H207C222 69.5 229.5 62.5 229.5 49C229.5 36.194 221.5 28.5 207 28H181V28.5Z" fill="#D12B1D"/>
<path fill-rule="evenodd" clip-rule="evenodd" d="M287 156V0H364.5C398.5 0 411.9 21.3 411.5 40.5C411.01 64 393.167 71.5 384 75C394.167 77.167 415.5 87.787 415.5 113C415.5 148.5 384 155 365 156H287ZM323 61.5V27.5H357.5C367 27.5 374.5 33.3 374.5 44.5C374.5 55.7 366 61.5 357.5 61.5H323ZM323 89.5V127.5H358C367.243 127.5 379 121.018 379 108.5C379 95.982 368.33 89.5 358 89.5H323Z" fill="#D12B1D"/>
<path d="M427 109V84.5H481.5V109H427Z" fill="#D12B1D"/>
<path d="M500 0V156.5H531V29.5L570.5 156.5H594L634.5 29.5V156.5H671V0H614.5L584.5 93L556.5 0H500Z" fill="#D12B1D"/>
<path fill-rule="evenodd" clip-rule="evenodd" d="M876.5 9.5H906C906.33 14.667 902.8 26.3 886 31.5C883.18 32.372 879.93 33.035 876.5 33.731C868.38 35.383 859.33 37.224 853 42.5C845.8 48.5 844.5 58 844.5 61.5C848.33 59 858.4 53.1 870 53.5C884.5 54 916 60.5 916 104.5C916 148.5 883 159.5 866.5 158.5C850 157.5 816 154.5 815 100C814.2 56.4 832.334 34.167 841.5 28.5C845.67 25.833 857 20 869 18C875.78 16.87 877.5 12 876.5 9.5ZM865.5 73C871 72.5 885 76.5 885 96.5V115C885 126 879.9 139.4 865.5 139C851.1 138.6 846 127.5 846 115V96.5C846 88.167 848.5 73 865.5 73Z" fill="#D12B1D"/>
<path d="M1068.5 156H1046.5L1080.5 55H1113L1144 156H1113.5L1092.5 82L1068.5 156Z" fill="#D12B1D"/>
<path fill-rule="evenodd" clip-rule="evenodd" d="M1168 54.5V156.5H1221.5C1245.5 156.5 1257 146 1257 122.5C1257 102.9 1244 92 1227 91.5H1198V54.5H1168ZM1198 109.5V136.5H1219.5C1225.5 136.5 1230 132.6 1230 123C1230 113.4 1224.5 110 1218 109.5H1198Z" fill="#D12B1D"/>
</svg>
